<svg id="al93k4as9h1z" version="1.1" xmlns="http://www.w3.org/2000/svg" xmlns:xlink="http://www.w3.org/1999/xlink" width="206.7" height="56.28" viewBox="0 0 206.7 56.28" style="" ><svg y="0" x="0" ><svg stroke-opacity="1" stroke="#61bb46" stroke-width="0" fill="#61bb46" x="0" y="0" ><path d="M 28.14 28.14m -28.14, 0a 28.14,28.14 0 1,0 56.28,0a 28.14,28.14 0 1,0 -56.28,0" ></path></svg><svg width="41.28" height="41.28" fill="#fff" x="7.5" y="7.5" ><svg xmlns:dc="http://purl.org/dc/elements/1.1/" xmlns:cc="http://creativecommons.org/ns#" xmlns:rdf="http://www.w3.org/1999/02/22-rdf-syntax-ns#" xmlns:svg="http://www.w3.org/2000/svg" xmlns="http://www.w3.org/2000/svg" xmlns:sodipodi="http://sodipodi.sourceforge.net/DTD/sodipodi-0.dtd" xmlns:inkscape="http://www.inkscape.org/namespaces/inkscape" version="1.1" x="0px" y="0px" viewBox="0 0 100 100"><g transform="translate(0,-952.36218)"><path style="color:#000000;enable-background:accumulate;" d="m 72.13612,963.86218 c -5.20666,0.009 -9.83325,2.58223 -11.71222,6.31556 -3.46789,-0.5742 -7.59891,-0.14991 -11.05457,1.83555 5.02706,4.34535 6.14956,12.48805 5.29236,18.32441 1.48972,2.2734 2.4683,4.8616 2.69319,7.56 1.98005,1.1033 3.9634,2.3209 5.69952,2.52 l 0.59506,-9.4266 c -3.42262,-1.1503 -5.6369,-4.54226 -7.64112,-6.53337 3.68196,2.11189 4.66574,3.2025 7.82902,3.39111 0.63904,-5.32349 3.92097,-12.38664 7.0148,-16.30221 -1.15785,3.40024 -2.33313,6.8186 -2.00423,11.88444 l 8.01691,-1.12 -8.20481,4.26222 c -1.41719,2.43861 -1.84564,4.60411 -2.03554,7.74661 2.90392,-0.773 7.27865,0.1282 10.96062,2.2401 -4.39066,-0.8926 -8.50404,-0.8324 -11.14852,0.9022 -0.63915,5.3235 -0.32118,10.3825 1.7537,18.0755 -2.00543,-3.5888 -4.0269,-7.1696 -5.32373,-11.9777 -1.85208,-1.0623 -3.82879,-2.6563 -5.449,-4.5111 0,2.1603 -0.93551,4.3475 -2.31739,6.5333 -0.76113,1.2039 -1.72924,2.3437 -2.78713,3.4222 0.59394,0.3696 1.21681,0.7269 1.84765,1.0889 0.90446,2.7482 2.39349,5.5161 4.32162,7.84 -1.71512,3.7237 -2.97722,7.4434 -3.82057,11.1378 -2.33226,-4.046 -5.00891,-7.8204 -7.92296,-11.1378 1.09223,-2.5534 1.65975,-5.3499 1.65975,-7.9956 4.00498,-2.9147 7.0148,-7.8905 7.0148,-10.8888 0,-2.9984 -0.99558,-5.9597 -2.78713,-8.369 0.78943,-4.55956 0.78287,-9.5316 -2.22344,-14.52883 -5.01052,-6.99615 -12.02538,-6.96889 -18.03806,-3.98222 -2.50527,-1.9989 -6.01269,-3.73529 -9.89588,-3.85778 -3.8832,-0.12249 -8.14219,1.36889 -12.150641,5.84889 -4.0084602,5.97333 -1.7850002,10.49608 0.21921,15.49334 -6.0126302,2.9983 -7.2279502,8.3903 -7.0148002,14.9956 -0.21315,7.3325 8.7998902,12.2888 15.8146212,12.2888 2.00421,5.9967 11.02326,11.9778 18.03806,9.9867 2.26383,-0.6426 4.22087,-1.9193 5.82479,-3.5778 4.53319,5.1631 8.28895,11.793 10.20904,17.5156 l 6.2319,-1.2756 c -1.02503,-5.5136 1.59324,-13.5122 3.63267,-17.4844 2.06082,0.9787 4.2513,1.8081 6.16925,1.8355 7.0148,0 14.0408,-7.9708 14.4054,-14.5911 6.650204,-2.3398 12.651704,-9.3022 12.651704,-15.2755 0,-5.97337 -4.00352,-10.94619 -10.960634,-12.81781 0.94442,-5.09726 -0.0767,-11.07929 -3.8832,-14.34222 -3.08204,-2.1364 -6.39609,-3.05435 -9.52007,-3.04889 z m -49.57336,13.00444 c 4.00846,2.98667 9.01903,8.96 11.02326,13.93778 3.00635,-0.9956 5.01058,-1.9911 8.01692,-4.97778 -2.00423,2.98668 -4.00846,5.97328 -7.0148,7.96448 l 3.00634,8.96 c 2.00423,-0.7878 4.00846,-3.1853 6.01269,-4.9778 -1.00212,2.9867 -3.00635,5.9733 -5.01057,7.9644 0,4.9778 -1.00212,8.96 -2.00423,12.9423 0,-7.9645 -1.00212,-12.9423 -3.00635,-17.92 -3.00634,-0.9956 -7.0148,0 -11.02326,1.9911 3.00635,-2.9867 7.01481,-4.9778 10.02115,-4.9778 -1.00212,-2.9867 -2.00423,-4.9778 -4.00846,-6.9689 l -9.01903,-1.9911 8.01692,-0.99557 c -1.00212,-4.97777 -3.00635,-7.96444 -5.01058,-10.95111 z"  stroke="none" marker="none" visibility="visible" display="inline" overflow="visible"></path></g></svg></svg></svg><svg x="70.35" y="18.09" fill="#000" ><path d="M4.300 11.675L4.300 19.050L0.800 19.050L0.800 1.050L11.675 1.050L11.675 3.800L4.300 3.800L4.300 8.925L10.925 8.925L10.925 11.675L4.300 11.675ZM18.175 3.425L15.925 3.550L15.925 9.050L15.925 9.050Q17.225 9.100 18.175 9.100L18.175 9.100L18.175 9.100Q19.950 9.100 20.763 8.363L20.763 8.363L20.763 8.363Q21.575 7.625 21.575 6.050L21.575 6.050L21.575 6.050Q21.575 4.925 20.688 4.175L20.688 4.175L20.688 4.175Q19.800 3.425 18.175 3.425L18.175 3.425M15.925 19.050L12.425 19.050L12.425 1.050L12.425 1.050Q16.075 0.800 18.175 0.800L18.175 0.800L18.175 0.800Q21.475 0.800 23.325 2.225L23.325 2.225L23.325 2.225Q25.175 3.650 25.175 6.050L25.175 6.050L25.175 6.050Q25.175 7.775 24.238 8.875L24.238 8.875L24.238 8.875Q23.300 9.975 22.050 10.250L22.050 10.250L22.050 10.250Q23.050 10.525 23.625 11.275L23.625 11.275L23.625 11.275Q24.200 12.025 24.550 13.925L24.550 13.925L24.550 13.925Q24.850 15.600 25.213 16.875L25.213 16.875L25.213 16.875Q25.575 18.150 25.775 18.600L25.775 18.600L25.975 19.050L22.325 19.050L22.325 19.050Q21.800 18.400 21.075 13.925L21.075 13.925L21.075 13.925Q20.875 12.700 20.212 12.213L20.212 12.213L20.212 12.213Q19.550 11.725 18.175 11.725L18.175 11.725L15.925 11.800L15.925 19.050ZM30.100 11L30.100 16.425L37.850 16.425L37.850 19.050L26.600 19.050L26.600 1.050L37.600 1.050L37.600 3.675L30.100 3.675L30.100 8.375L36.975 8.375L36.975 11L30.100 11ZM38.475 5.425L38.475 5.425L38.475 5.425Q38.475 3.300 40.212 2.050L40.212 2.050L40.212 2.050Q41.950 0.800 44.900 0.800L44.900 0.800L44.900 0.800Q45.950 0.800 47 0.988L47 0.988L47 0.988Q48.050 1.175 48.575 1.350L48.575 1.350L49.100 1.550L49.100 4.175L49.100 4.175Q47.600 3.425 44.900 3.425L44.900 3.425L44.900 3.425Q42.075 3.425 42.075 5.425L42.075 5.425L42.075 5.425Q42.075 6.300 42.775 6.988L42.775 6.988L42.775 6.988Q43.475 7.675 44.975 8.600L44.975 8.600L44.975 8.600Q46.575 9.575 47.500 10.313L47.500 10.313L47.500 10.313Q48.425 11.050 49.075 12.137L49.075 12.137L49.075 12.137Q49.725 13.225 49.725 14.550L49.725 14.550L49.725 14.550Q49.725 17 47.963 18.150L47.963 18.150L47.963 18.150Q46.200 19.300 43.275 19.300L43.275 19.300L43.275 19.300Q42.125 19.300 40.950 19.113L40.950 19.113L40.950 19.113Q39.775 18.925 39.200 18.750L39.200 18.750L38.600 18.550L38.600 15.925L38.600 15.925Q40.750 16.675 43.275 16.675L43.275 16.675L43.275 16.675Q46.125 16.675 46.125 14.550L46.125 14.550L46.125 14.550Q46.125 13.800 45.550 13.175L45.550 13.175L45.550 13.175Q44.975 12.550 43.225 11.500L43.225 11.500L43.225 11.500Q40.925 10.125 39.700 8.688L39.700 8.688L39.700 8.688Q38.475 7.250 38.475 5.425ZM62.850 8.375L62.850 1.050L66.350 1.050L66.350 19.050L62.850 19.050L62.850 11L54.350 11L54.350 19.050L50.850 19.050L50.850 1.050L54.350 1.050L54.350 8.375L62.850 8.375ZM73.850 3.425L73.850 3.425L71.600 3.525L71.600 9.850L71.600 9.850Q72.900 9.925 73.850 9.925L73.850 9.925L73.850 9.925Q75.200 9.925 76.100 9.075L76.100 9.075L76.100 9.075Q77 8.225 77 6.675L77 6.675L77 6.675Q77 5.125 76.100 4.275L76.100 4.275L76.100 4.275Q75.200 3.425 73.850 3.425M73.850 0.800L73.850 0.800L73.850 0.800Q76.925 0.800 78.762 2.387L78.762 2.387L78.762 2.387Q80.600 3.975 80.600 6.675L80.600 6.675L80.600 6.675Q80.600 9.375 78.762 10.963L78.762 10.963L78.762 10.963Q76.925 12.550 73.850 12.550L73.850 12.550L71.600 12.475L71.600 19.050L68.100 19.050L68.100 1.050L68.100 1.050Q71 0.800 73.850 0.800ZM83.012 3.488L83.012 3.488L83.012 3.488Q85.425 0.800 89.475 0.800L89.475 0.800L89.475 0.800Q93.525 0.800 95.938 3.488L95.938 3.488L95.938 3.488Q98.350 6.175 98.350 10.050L98.350 10.050L98.350 10.050Q98.350 13.925 95.938 16.613L95.938 16.613L95.938 16.613Q93.525 19.300 89.475 19.300L89.475 19.300L89.475 19.300Q85.425 19.300 83.012 16.613L83.012 16.613L83.012 16.613Q80.600 13.925 80.600 10.050L80.600 10.050L80.600 10.050Q80.600 6.175 83.012 3.488M85.700 14.863L85.700 14.863L85.700 14.863Q87.200 16.675 89.475 16.675L89.475 16.675L89.475 16.675Q91.750 16.675 93.250 14.863L93.250 14.863L93.250 14.863Q94.750 13.050 94.750 10.050L94.750 10.050L94.750 10.050Q94.750 7.050 93.250 5.238L93.250 5.238L93.250 5.238Q91.750 3.425 89.475 3.425L89.475 3.425L89.475 3.425Q87.200 3.425 85.700 5.238L85.700 5.238L85.700 5.238Q84.200 7.050 84.200 10.050L84.200 10.050L84.200 10.050Q84.200 13.050 85.700 14.863ZM102.850 1.050L102.850 19.050L99.350 19.050L99.350 1.050L102.850 1.050ZM120.425 19.050L116.875 19.050L110.250 9.050L110.250 9.050Q108.625 6.450 108 5.125L108 5.125L107.975 5.125L107.975 5.125Q108.100 6.725 108.100 9.050L108.100 9.050L108.100 19.050L104.600 19.050L104.600 1.050L108.150 1.050L114.775 11.050L114.775 11.050Q116.400 13.650 117.025 14.975L117.025 14.975L117.050 14.975L117.050 14.975Q116.925 13.375 116.925 11.050L116.925 11.050L116.925 1.050L120.425 1.050L120.425 19.050ZM121.050 1.050L135.550 1.050L135.550 3.675L130.050 3.675L130.050 19.050L126.550 19.050L126.550 3.675L121.050 3.675L121.050 1.050Z" ></path></svg></svg>