<?xml version="1.0" encoding="UTF-8" standalone="no"?>
<!DOCTYPE svg PUBLIC "-//W3C//DTD SVG 1.1//EN" "http://www.w3.org/Graphics/SVG/1.1/DTD/svg11.dtd">
<svg version="1.1" xmlns="http://www.w3.org/2000/svg" xmlns:xlink="http://www.w3.org/1999/xlink" preserveAspectRatio="xMidYMid meet" viewBox="22.47 15.510000000000002 238.13000000000002 209.95000000000002" width="234.13" height="205.95"><defs><path d="M198.04 16.55L198.64 16.58L199.24 16.62L199.83 16.67L200.43 16.73L201.03 16.8L201.63 16.88L202.24 16.97L202.84 17.07L203.44 17.18L204.05 17.3L204.65 17.43L205.26 17.58L205.86 17.73L206.47 17.89L207.08 18.06L207.68 18.24L208.29 18.44L208.89 18.64L209.5 18.86L210.1 19.08L210.71 19.32L211.31 19.57L211.92 19.83L212.52 20.1L213.12 20.38L213.72 20.67L214.92 21.29L215.52 21.62L216.11 21.96L216.71 22.31L217.3 22.67L218.48 23.43L219.06 23.83L219.65 24.24L220.23 24.66L220.94 25.33L221.62 26.03L222.27 26.75L222.9 27.49L223.5 28.26L224.08 29.05L224.63 29.86L225.16 30.7L225.66 31.55L226.14 32.42L226.59 33.31L227.02 34.22L227.43 35.15L227.81 36.09L228.16 37.04L228.5 38.01L228.81 38.99L229.1 39.98L229.36 40.99L229.61 42L229.83 43.03L230.02 44.06L230.2 45.1L230.35 46.14L230.49 47.2L230.6 48.25L230.69 49.31L230.76 50.37L230.8 51.44L230.83 52.51L230.84 53.57L230.83 54.64L230.79 55.7L230.74 56.76L230.66 57.82L230.57 58.87L230.46 59.92L230.33 60.96L230.18 62L230.01 63.02L231.31 63.41L232.58 63.84L233.82 64.29L235.04 64.77L236.22 65.28L237.38 65.82L238.51 66.38L239.6 66.98L240.67 67.6L241.71 68.25L242.72 68.92L243.69 69.62L244.64 70.34L245.55 71.09L246.44 71.86L247.29 72.65L248.11 73.47L248.9 74.31L249.65 75.17L250.37 76.05L251.06 76.95L251.72 77.88L252.34 78.82L252.93 79.78L253.49 80.76L254.01 81.76L254.5 82.77L254.95 83.8L255.37 84.85L255.75 85.91L256.1 86.99L256.41 88.09L256.69 89.2L256.93 90.32L257.14 91.45L257.3 92.6L257.43 93.76L257.53 94.93L257.58 96.11L257.6 97.31L257.57 98.51L257.49 99.72L257.35 100.94L257.16 102.16L256.92 103.39L256.63 104.62L256.29 105.86L255.9 107.09L255.46 108.32L254.98 109.55L254.46 110.78L253.89 112L253.28 113.21L252.63 114.41L251.94 115.61L251.21 116.79L250.45 117.96L249.65 119.11L248.82 120.26L247.96 121.38L247.06 122.49L246.13 123.57L245.18 124.64L244.2 125.68L243.19 126.7L242.15 127.69L241.1 128.66L240.01 129.6L238.91 130.51L237.79 131.39L236.65 132.23L235.49 133.05L234.32 133.82L233.13 134.56L231.93 135.27L230.71 135.93L229.49 136.55L228.25 137.13L227 137.67L225.75 138.16L225.65 139.5L225.49 140.84L225.27 142.2L224.99 143.56L224.65 144.92L224.26 146.29L223.82 147.66L223.32 149.02L222.78 150.38L222.18 151.73L221.54 153.07L220.85 154.4L220.12 155.72L219.34 157.02L218.53 158.29L217.68 159.55L216.78 160.78L215.86 161.99L214.89 163.17L213.9 164.32L212.87 165.43L211.81 166.51L210.73 167.55L209.62 168.55L208.48 169.51L207.32 170.42L206.14 171.29L204.93 172.11L203.71 172.87L202.47 173.58L201.22 174.24L199.95 174.83L198.67 175.37L197.38 175.84L196.08 176.24L194.77 176.58L193.45 176.84L192.13 177.03L190.81 177.15L189.49 177.19L189.12 177.18L188.76 177.16L188.39 177.14L188.02 177.11L187.64 177.07L187.27 177.02L186.13 176.84L185.37 176.68L184.59 176.5L184.21 176.4L183.82 176.3L183.43 176.18L183.03 176.07L182.64 175.95L182.25 175.82L181.85 175.69L181.46 175.55L181.06 175.41L180.67 175.27L180.27 175.12L179.88 174.97L179.08 174.65L178.68 174.48L178.29 174.31L177.49 173.97L177.1 173.79L176.7 173.61L176.31 173.43L175.91 173.24L175.13 172.86L174.73 172.67L174.34 172.48L173.95 172.28L173.57 173.1L173.17 173.95L172.78 174.85L172.38 175.77L171.98 176.74L171.58 177.73L171.18 178.75L170.78 179.81L170.39 180.89L170 182L169.61 183.13L169.23 184.28L168.85 185.45L168.48 186.65L168.12 187.86L167.77 189.08L167.43 190.33L167.11 191.58L166.79 192.84L166.49 194.12L166.2 195.4L165.93 196.69L165.67 197.98L165.43 199.27L165.21 200.57L165.01 201.87L164.83 203.16L164.68 204.45L164.54 205.73L164.43 207.01L164.34 208.28L164.28 209.54L164.24 210.79L164.23 212.02L164.25 213.24L164.3 214.44L164.38 215.62L164.49 216.79L164.63 217.93L164.81 219.05L149.12 222.46L148.75 221.31L148.36 220.14L147.95 218.98L147.53 217.8L147.1 216.62L146.64 215.43L146.17 214.23L145.69 213.03L145.19 211.83L144.67 210.62L144.14 209.41L143.59 208.2L143.03 206.98L142.46 205.77L141.87 204.55L141.27 203.33L140.66 202.12L140.03 200.9L139.39 199.68L138.74 198.47L138.07 197.26L137.39 196.06L136.7 194.86L136 193.66L135.29 192.47L134.57 191.28L133.83 190.1L133.09 188.93L132.33 187.76L131.57 186.6L130.79 185.45L130.01 184.32L129.22 183.19L128.41 182.07L127.6 180.96L126.78 179.86L125.95 178.78L125.11 177.71L124.27 176.65L123.42 175.61L123.11 175.94L122.81 176.27L122.49 176.59L122.18 176.91L121.22 177.84L120.56 178.44L120.22 178.73L119.89 179.02L119.55 179.31L119.2 179.59L118.86 179.86L118.51 180.13L118.15 180.4L117.8 180.66L117.44 180.92L117.07 181.17L116.71 181.41L115.97 181.89L115.21 182.35L114.83 182.57L114.45 182.78L114.06 182.99L113.28 183.39L112.48 183.77L112.08 183.95L111.67 184.12L111.27 184.29L110.85 184.46L110.44 184.61L109.6 184.91L109.18 185.05L108.75 185.18L107.42 185.54L106.07 185.82L104.7 186.03L103.33 186.16L101.94 186.22L100.54 186.21L99.14 186.13L97.73 185.99L96.33 185.78L94.92 185.51L93.51 185.18L92.11 184.79L90.72 184.35L89.33 183.85L87.95 183.3L86.59 182.7L85.25 182.05L83.92 181.35L82.61 180.62L81.32 179.84L80.05 179.01L78.81 178.16L77.6 177.26L76.42 176.33L75.27 175.37L74.16 174.38L73.08 173.36L72.04 172.32L71.04 171.25L70.08 170.16L69.17 169.05L68.31 167.92L67.49 166.77L66.73 165.61L66.02 164.44L65.36 163.26L64.77 162.07L64.23 160.87L63.75 159.67L63.34 158.47L62.01 158.44L60.66 158.37L59.3 158.25L57.92 158.08L56.54 157.86L55.15 157.6L53.76 157.29L52.37 156.93L50.98 156.53L49.6 156.09L48.22 155.6L46.85 155.07L45.5 154.5L44.16 153.89L42.84 153.24L41.54 152.55L40.27 151.81L39.02 151.04L37.8 150.23L36.61 149.39L35.46 148.5L34.34 147.59L33.26 146.63L32.22 145.64L31.23 144.62L30.29 143.56L29.39 142.47L28.55 141.35L27.77 140.19L27.04 139.01L26.37 137.79L25.77 136.55L25.23 135.27L24.76 133.97L24.36 132.64L24.04 131.29L23.79 129.9L23.62 128.49L23.53 127.06L23.53 125.6L23.49 124.28L23.48 122.97L23.47 121.68L23.48 120.4L23.51 119.13L23.56 117.88L23.62 116.64L23.71 115.41L23.81 114.2L23.93 113.01L24.08 111.83L24.24 110.66L24.44 109.51L24.65 108.38L24.89 107.26L25.15 106.16L25.44 105.07L25.76 104.01L26.11 102.96L26.48 101.93L26.88 100.91L27.32 99.92L27.78 98.94L28.28 97.99L28.81 97.05L29.37 96.13L29.97 95.23L30.6 94.35L31.26 93.49L31.97 92.66L32.71 91.84L33.49 91.05L34.31 90.27L35.16 89.52L36.06 88.79L37 88.09L37.98 87.4L39.01 86.74L40.08 86.1L41.19 85.49L40.43 83.49L39.67 81.51L39.3 80.53L38.93 79.54L38.58 78.56L38.22 77.58L37.88 76.6L37.55 75.62L37.24 74.64L36.94 73.67L36.65 72.68L36.38 71.7L36.14 70.72L35.91 69.73L35.7 68.74L35.52 67.75L35.36 66.75L35.24 65.75L35.13 64.74L35.06 63.73L35.02 62.71L35.02 61.69L35.05 60.66L35.11 59.62L35.21 58.58L35.35 57.52L35.53 56.46L35.76 55.39L36.02 54.31L36.33 53.21L36.69 52.11L37.1 51L37.56 49.87L38.06 48.73L38.62 47.58L39.24 46.42L39.91 45.24L40.64 44.05L41.39 43.17L42.15 42.31L42.92 41.49L43.68 40.69L44.45 39.93L45.21 39.19L45.98 38.48L46.75 37.79L47.53 37.14L48.3 36.51L49.07 35.9L49.85 35.33L50.62 34.78L51.4 34.25L52.17 33.75L52.95 33.27L53.72 32.82L54.5 32.4L55.27 31.99L56.05 31.61L56.82 31.26L57.6 30.92L58.37 30.61L59.14 30.32L59.91 30.05L60.68 29.81L61.45 29.58L62.21 29.38L62.98 29.19L63.74 29.03L64.5 28.88L65.26 28.76L66.01 28.65L66.77 28.56L67.52 28.49L68.27 28.44L69.01 28.41L69.75 28.39L70.49 28.39L71.23 28.41L71.96 28.44L72.68 28.49L73.41 28.55L74.13 28.63L74.84 28.73L75.56 28.83L76.26 28.96L76.97 29.09L77.66 29.24L78.36 29.41L79.04 29.58L79.73 29.77L80.4 29.97L81.08 30.18L82.4 30.64L83.06 30.89L83.71 31.14L84.35 31.41L84.98 31.68L85.61 31.97L86.24 32.26L87.46 32.88L88.06 33.2L88.66 33.53L89.24 33.86L89.82 34.2L90.4 34.55L90.96 34.9L91.52 35.26L92.6 36L93.14 36.38L93.66 36.76L94.68 37.54L95.17 37.93L95.66 38.33L96.14 38.73L97.28 38.14L98.43 37.59L99.58 37.07L100.75 36.58L101.92 36.12L103.1 35.7L104.28 35.32L105.46 34.97L106.65 34.66L107.85 34.39L109.04 34.16L110.24 33.97L111.44 33.82L112.64 33.71L113.83 33.65L115.03 33.63L116.23 33.66L117.42 33.74L118.61 33.87L119.79 34.04L120.97 34.26L122.15 34.54L123.31 34.86L124.48 35.24L125.63 35.68L126.78 36.17L127.91 36.71L129.04 37.31L130.16 37.98L131.26 38.7L132.36 39.48L133.44 40.32L134.51 41.22L135.56 42.19L136.6 43.22L137.62 44.32L138.63 45.48L139.62 46.71L140.6 48.01L141.55 49.38L142.1 50.38L142.63 51.38L143.13 52.38L143.6 53.38L144.05 54.38L144.47 55.38L144.86 56.38L145.23 57.38L145.58 58.38L145.9 59.37L146.2 60.37L146.47 61.36L146.73 62.35L146.96 63.34L147.17 64.33L147.36 65.32L147.53 66.3L147.69 67.29L147.82 68.27L147.93 69.25L148.03 70.22L148.11 71.2L148.17 72.17L148.22 73.14L148.25 74.11L148.26 75.07L148.26 76.03L148.25 76.99L148.22 77.95L148.18 78.9L148.06 80.8L147.98 81.74L147.89 82.68L147.79 83.61L147.68 84.55L147.56 85.47L147.43 86.4L147.15 88.24L147.48 88.72L147.81 89.21L148.13 89.71L148.44 90.21L149.04 91.23L149.33 91.75L149.61 92.27L150.15 93.33L150.4 93.86L150.65 94.4L150.89 94.94L151.13 95.49L151.57 96.59L152.17 98.27L152.35 98.84L152.69 99.98L152.85 100.56L152.99 101.13L153.13 101.71L153.27 102.3L153.39 102.88L153.61 104.06L153.79 105.24L153.87 105.83L153.94 106.43L154 107.02L154.05 107.62L154.09 108.22L154.15 109.42L154.17 110.62L154.15 111.23L154.11 111.86L154.04 112.51L153.94 113.17L153.82 113.86L153.67 114.55L153.5 115.26L153.3 115.98L153.07 116.71L152.82 117.46L152.55 118.21L152.26 118.98L151.94 119.75L151.6 120.52L151.24 121.3L150.85 122.09L150.45 122.88L150.02 123.68L149.58 124.47L149.12 125.27L148.63 126.06L148.13 126.86L147.61 127.65L147.08 128.44L146.52 129.22L145.95 130L145.37 130.77L144.77 131.53L144.15 132.29L143.52 133.03L142.87 133.77L142.21 134.49L141.54 135.2L140.86 135.9L140.16 136.58L139.45 137.25L138.73 137.9L138 138.54L137.26 139.15L136.51 139.75L136.48 141.34L136.44 142.42L136.41 142.95L136.29 144.57L136.24 145.11L136.12 146.19L136.06 146.74L135.98 147.28L135.91 147.82L135.83 148.36L135.74 148.91L135.65 149.45L135.45 150.53L135.23 151.61L134.99 152.69L134.86 153.23L134.72 153.77L134.59 154.3L134.44 154.84L134.14 155.9L133.82 156.96L133.65 157.49L133.47 158.02L133.3 158.54L132.73 160.1L132.53 160.62L132.33 161.13L132.88 161.8L133.42 162.47L133.97 163.15L135.05 164.51L135.59 165.2L137.18 167.3L138.24 168.72L138.76 169.43L139.28 170.15L139.8 170.88L140.31 171.6L140.83 172.33L141.34 173.07L141.84 173.81L142.35 174.55L142.85 175.29L143.35 176.04L143.84 176.8L144.34 177.55L144.83 178.31L145.32 179.08L146.76 181.39L147.24 182.17L148.18 183.73L148.65 184.52L149.57 186.1L150.49 187.7L151.39 189.3L152.27 190.92L152.43 190.18L152.77 188.7L152.94 187.95L153.3 186.47L153.49 185.73L153.67 184.98L153.87 184.24L154.06 183.5L154.27 182.75L154.47 182.01L154.68 181.27L154.89 180.52L155.11 179.78L155.33 179.03L155.56 178.29L155.79 177.54L156.02 176.8L156.26 176.05L156.5 175.31L156.75 174.56L157 173.82L157.25 173.07L157.51 172.33L157.77 171.58L158.04 170.84L158.31 170.09L158.59 169.34L158.87 168.6L159.15 167.85L159.44 167.1L159.73 166.36L160.33 164.86L160.63 164.12L161.25 162.62L161.57 161.88L161.89 161.13L161.17 160.19L160.12 158.75L159.78 158.26L159.45 157.76L159.11 157.27L158.79 156.77L158.46 156.27L158.15 155.76L157.83 155.25L157.52 154.74L156.62 153.18L156.33 152.66L156.04 152.13L155.76 151.6L155.49 151.07L155.21 150.54L154.95 150L154.68 149.47L154.43 148.93L154.17 148.39L153.93 147.85L153.69 147.3L153.45 146.76L152.99 145.66L152.77 145.12L152.55 144.57L152.13 143.47L151.93 142.92L151.55 141.82L151.36 141.26L151.19 140.71L151.01 140.16L150.77 140.02L150.65 139.94L150.54 139.87L150.3 139.73L150.18 139.65L149.94 139.51L149.83 139.44L149.71 139.36L149.35 139.15L149.24 139.07L148.88 138.86L148.77 138.79L148.65 138.71L148.53 138.64L148.42 138.57L148.3 138.49L148.19 138.42L147.95 138.28L147.84 138.2L147.72 138.13L147.61 138.06L147.49 137.98L147.27 137.84L147.15 137.76L147.04 137.69L146.92 137.62L146.81 137.54L146.7 137.47L146.58 137.4L146.47 137.32L146.36 137.25L146.76 136.81L146.96 136.6L147.15 136.38L147.35 136.16L147.54 135.94L147.74 135.72L148.12 135.28L148.31 135.05L148.69 134.61L148.88 134.38L149.06 134.16L149.25 133.93L149.43 133.71L149.79 133.25L149.97 133.03L150.33 132.57L150.67 132.11L150.85 131.88L151.02 131.65L151.19 131.41L151.35 131.18L151.52 130.95L151.68 130.71L151.85 130.48L152.01 130.24L152.17 130.01L152.32 129.77L152.48 129.53L152.63 129.3L152.79 129.06L152.94 128.82L153.09 128.58L153.23 128.34L153.38 128.1L153.64 127.66L154.39 126.34L154.63 125.9L154.86 125.46L155.09 125.03L155.32 124.59L155.76 123.71L155.97 123.27L156.17 122.83L156.37 122.4L156.75 121.52L156.93 121.08L157.11 120.65L157.28 120.21L157.6 119.33L157.75 118.9L158.03 118.02L158.16 117.58L158.28 117.15L158.4 116.71L158.51 116.27L158.61 115.84L158.7 115.4L158.79 114.97L158.87 114.53L158.94 114.1L159 113.66L159.06 113.23L159.1 112.79L159.14 112.36L159.17 111.92L159.19 111.49L159.21 111.05L159.21 110.62L160.14 111.73L160.78 112.45L161.1 112.8L161.43 113.16L162.09 113.86L162.75 114.54L163.09 114.88L164.11 115.87L164.46 116.19L164.8 116.51L165.15 116.83L165.85 117.45L166.55 118.05L166.91 118.35L167.26 118.64L167.62 118.93L167.97 119.21L168.33 119.49L168.68 119.77L169.04 120.04L169.39 120.3L169.75 120.56L170.1 120.82L170.46 121.07L170.81 121.31L171.17 121.56L171.52 121.79L171.88 122.02L172.23 122.25L172.93 122.69L173.18 123.65L173.43 124.59L173.69 125.53L173.96 126.45L174.24 127.36L174.52 128.26L174.8 129.15L175.09 130.04L175.39 130.91L175.69 131.77L176 132.62L176.31 133.46L176.63 134.3L176.95 135.13L177.27 135.94L177.6 136.75L177.94 137.56L178.27 138.35L178.62 139.14L178.96 139.93L179.31 140.71L179.66 141.48L180.02 142.24L180.37 143L180.73 143.76L181.1 144.51L181.46 145.26L182.57 147.48L183.31 148.94L183.69 149.67L184.06 150.39L184.44 151.12L185.2 152.56L185.57 153.28L186.33 154.72L185.95 153.19L185.58 151.69L185.23 150.21L184.9 148.75L184.58 147.32L184.27 145.91L183.98 144.53L183.71 143.16L183.45 141.82L183.21 140.49L182.98 139.18L182.77 137.9L182.57 136.63L182.39 135.37L182.22 134.14L182.06 132.92L181.91 131.71L181.78 130.52L181.67 129.34L181.56 128.17L181.47 127.02L181.39 125.88L181.33 124.74L181.27 123.62L181.23 122.51L181.2 121.4L181.18 120.3L181.17 119.21L181.18 118.12L181.19 117.04L181.22 115.97L181.3 113.83L181.36 112.76L181.43 111.7L181.51 110.64L181.6 109.57L181.69 108.51L181.8 107.44L181.92 106.38L182.42 106.04L182.94 105.71L183.48 105.41L184.02 105.12L184.58 104.84L185.15 104.59L185.74 104.34L186.33 104.12L186.94 103.9L187.56 103.71L188.19 103.53L188.83 103.36L189.48 103.21L190.14 103.07L190.81 102.95L191.49 102.84L192.18 102.74L192.88 102.66L193.59 102.59L194.3 102.54L195.03 102.49L195.76 102.47L196.5 102.45L197.25 102.45L198 102.46L198.76 102.48L199.53 102.51L200.3 102.56L201.09 102.61L201.87 102.68L202.66 102.76L203.46 102.85L204.26 102.96L205.07 103.07L205.88 103.19L206.69 103.33L207.51 103.47L208.33 103.63L209.16 103.79L209.98 103.96L209.29 103.55L208.58 103.14L207.87 102.75L207.16 102.37L206.44 102L205.71 101.65L204.99 101.3L204.26 100.97L203.52 100.66L202.79 100.35L202.05 100.06L201.32 99.79L200.58 99.53L199.84 99.28L199.11 99.04L198.37 98.82L197.64 98.61L196.91 98.42L196.18 98.24L195.45 98.07L194.73 97.92L194.01 97.79L193.3 97.67L192.59 97.56L191.89 97.47L191.19 97.39L190.5 97.33L189.82 97.29L189.15 97.26L188.48 97.24L187.82 97.24L187.18 97.26L186.54 97.29L185.91 97.34L185.29 97.4L184.09 97.58L183.51 97.7L182.94 97.83L182.39 97.97L182.47 96.73L182.51 96.12L182.55 95.53L182.6 94.94L182.65 94.36L182.71 93.78L182.76 93.22L182.83 92.66L182.89 92.11L182.96 91.56L183.03 91.02L183.19 89.96L183.28 89.44L183.37 88.93L183.57 87.91L183.79 86.91L183.91 86.41L184.17 85.43L184.31 84.94L184.45 84.46L184.6 83.98L184.92 83.02L185.46 81.58L185.66 81.11L185.86 80.63L186.07 80.15L186.29 79.67L186.75 78.71L187 78.23L187.25 77.74L187.51 77.25L208.17 65.85L187.99 68.85L187.93 67.84L187.89 66.85L187.86 65.87L187.85 64.91L187.85 63.97L187.86 63.03L187.88 62.12L187.91 61.21L187.96 60.32L188.02 59.44L188.08 58.58L188.16 57.73L188.25 56.88L188.35 56.05L188.45 55.23L188.69 53.63L188.82 52.84L188.96 52.06L189.11 51.28L189.26 50.52L189.42 49.77L189.59 49.02L189.76 48.28L189.94 47.54L190.12 46.82L190.31 46.09L190.5 45.38L190.9 43.96L191.1 43.26L191.52 41.86L191.73 41.17L191.95 40.48L192.16 39.8L192.38 39.11L192.6 38.43L192.81 37.74L193.03 37.06L192.45 37.86L191.86 38.69L191.28 39.55L190.69 40.44L190.1 41.36L189.52 42.3L188.94 43.26L188.36 44.25L187.78 45.26L187.21 46.29L186.65 47.34L186.09 48.41L185.53 49.49L184.99 50.59L184.45 51.71L183.92 52.83L183.39 53.97L182.88 55.12L182.38 56.28L181.89 57.45L181.41 58.63L180.94 59.81L180.48 60.99L180.04 62.18L179.61 63.37L179.2 64.56L178.81 65.76L178.43 66.95L178.06 68.13L177.72 69.32L177.39 70.5L177.08 71.67L176.79 72.83L176.52 73.99L176.27 75.13L176.05 76.27L175.84 77.39L175.66 78.5L175.51 79.59L175.37 80.66L174.79 80.62L174.22 80.57L173.67 80.51L173.14 80.44L172.62 80.36L172.12 80.27L171.63 80.18L171.16 80.07L170.69 79.95L170.24 79.83L169.79 79.69L169.36 79.55L168.93 79.4L168.5 79.23L168.08 79.06L167.66 78.88L167.25 78.69L166.84 78.49L166.42 78.28L166.01 78.06L165.59 77.83L165.17 77.59L164.74 77.34L164.31 77.08L163.43 76.54L162.97 76.25L162.5 75.95L162.02 75.64L161.53 75.32L161.03 75L160.51 74.66L159.97 74.31L159.42 73.95L158.84 73.59L158.25 73.21L157.64 72.82L157 72.42L156.35 72.01L155.66 71.59L156.04 72L156.42 72.42L156.81 72.85L157.2 73.29L157.58 73.75L157.98 74.21L158.37 74.68L158.77 75.16L159.59 76.14L160.41 77.14L160.84 77.64L161.26 78.15L161.7 78.65L162.13 79.16L162.58 79.67L163.03 80.17L163.48 80.68L163.94 81.18L164.41 81.67L165.37 82.65L165.86 83.12L166.36 83.59L166.86 84.05L167.38 84.5L167.9 84.94L168.43 85.37L168.97 85.79L169.52 86.19L170.08 86.58L170.64 86.96L171.22 87.31L171.81 87.65L172.4 87.98L173.01 88.28L173.63 88.56L174.26 88.83L174.9 89.07L173.4 114.28L173.07 114.24L172.41 114.12L171.73 113.96L171.4 113.87L171.05 113.77L170.71 113.66L170.36 113.54L170.02 113.42L169.67 113.29L169.32 113.15L168.96 113L168.61 112.85L168.26 112.69L167.9 112.53L167.54 112.36L166.46 111.82L166.09 111.63L165.73 111.44L165.36 111.24L165 111.04L163.52 110.2L163.15 109.98L162.78 109.77L162.04 109.33L161.67 109.1L161.29 108.88L160.92 108.66L160.55 108.43L160.17 108.21L159.8 107.99L159.43 107.76L159.05 107.54L159.01 107L158.89 105.92L158.83 105.39L158.75 104.85L158.67 104.32L158.58 103.78L158.49 103.25L158.39 102.72L158.28 102.19L158.17 101.67L158.05 101.14L157.79 100.1L157.65 99.58L157.35 98.54L157.03 97.52L156.86 97.01L156.5 95.99L156.12 94.99L155.92 94.49L155.71 93.99L155.5 93.5L155.06 92.52L154.83 92.03L154.6 91.55L154.12 90.59L153.87 90.11L153.62 89.64L153.36 89.17L153.09 88.7L152.83 88.24L152.27 87.32L152.43 86.14L152.56 84.94L152.67 83.71L152.77 82.47L152.84 81.21L152.89 79.94L152.92 78.65L152.93 77.35L152.92 76.03L152.88 74.71L152.82 73.38L152.74 72.05L152.63 70.71L152.5 69.36L152.34 68.02L152.16 66.67L151.95 65.33L151.72 63.99L151.46 62.65L151.17 61.32L150.85 60L150.5 58.68L150.13 57.38L149.73 56.09L149.3 54.81L148.83 53.55L148.34 52.3L147.82 51.07L147.26 49.86L146.67 48.68L146.05 47.51L145.4 46.37L144.72 45.26L144 44.17L143.24 43.11L142.46 42.08L141.63 41.09L140.77 40.13L139.88 39.2L138.95 38.31L139.6 37.92L140.27 37.54L140.93 37.18L141.61 36.84L142.28 36.51L142.97 36.2L143.65 35.9L144.35 35.61L145.04 35.34L146.44 34.84L147.15 34.62L147.85 34.4L148.56 34.2L149.28 34.02L149.99 33.85L150.7 33.69L151.42 33.54L152.14 33.41L152.85 33.29L153.57 33.18L154.29 33.09L155 33L155.72 32.94L156.43 32.88L157.14 32.83L157.85 32.8L158.56 32.78L159.27 32.77L159.97 32.77L161.37 32.81L162.75 32.89L163.43 32.95L164.11 33.02L164.79 33.1L165.46 33.19L166.12 33.29L166.78 33.4L167.15 32.66L167.54 31.93L167.96 31.21L168.4 30.5L168.87 29.81L169.36 29.13L169.87 28.46L170.4 27.81L170.96 27.17L171.54 26.55L172.14 25.94L172.76 25.35L173.4 24.78L174.05 24.22L174.73 23.67L175.43 23.15L176.14 22.64L176.87 22.15L177.62 21.67L178.38 21.22L179.16 20.78L179.95 20.37L180.76 19.97L181.59 19.59L182.42 19.23L183.27 18.89L184.14 18.58L185.01 18.28L185.9 18.01L186.79 17.75L187.7 17.52L188.62 17.32L189.55 17.13L190.48 16.97L191.43 16.83L192.38 16.72L193.34 16.63L194.31 16.56L195.29 16.52L196.27 16.51L196.86 16.51L197.45 16.52L198.04 16.55ZM72.97 53.69L73.35 54.3L73.72 54.9L74.1 55.51L74.47 56.13L74.84 56.74L75.21 57.37L75.57 57.99L75.94 58.62L76.3 59.26L76.65 59.91L77.01 60.56L77.36 61.22L77.7 61.88L78.04 62.56L78.72 63.94L79.04 64.64L79.37 65.36L79.69 66.08L80 66.82L80.31 67.57L80.61 68.33L81.19 69.89L81.48 70.69L81.75 71.51L82.02 72.34L82.28 73.19L82.53 74.05L82.78 74.93L83.02 75.83L83.25 76.74L83.47 77.67L83.68 78.62L83.88 79.59L84.08 80.58L63.89 83.24L86.6 88.57L87.34 89.37L88.04 90.17L88.38 90.57L88.71 90.98L89.03 91.38L89.34 91.79L89.65 92.19L89.95 92.61L90.53 93.43L90.81 93.85L91.08 94.28L91.34 94.7L91.86 95.56L92.11 96L92.35 96.44L92.83 97.34L93.06 97.8L93.28 98.26L93.5 98.73L93.72 99.21L94.14 100.17L94.56 101.17L94.96 102.19L95.16 102.71L95.35 103.25L95.55 103.79L95.74 104.33L95.93 104.89L96.31 106.03L96.69 107.21L96.12 107.22L95.54 107.25L94.95 107.3L94.35 107.37L93.74 107.45L93.13 107.56L92.51 107.68L91.89 107.83L91.26 107.99L90.62 108.17L89.98 108.36L89.33 108.58L88.69 108.81L88.03 109.05L87.38 109.32L86.72 109.6L86.06 109.89L85.4 110.2L84.74 110.53L84.08 110.87L83.41 111.23L82.75 111.6L82.09 111.99L81.43 112.39L80.78 112.8L80.12 113.23L79.47 113.67L78.82 114.12L78.17 114.59L77.53 115.07L76.27 116.07L75.64 116.59L75.02 117.12L74.41 117.66L73.8 118.21L73.21 118.77L72.03 119.93L71.46 120.52L72.98 119.74L73.73 119.37L74.49 119.01L75.24 118.66L75.99 118.32L76.75 117.99L77.5 117.67L78.25 117.36L78.99 117.07L79.74 116.79L80.48 116.52L81.21 116.27L81.95 116.02L83.41 115.58L84.14 115.38L84.86 115.19L85.57 115.02L86.28 114.86L86.99 114.72L88.39 114.48L89.08 114.39L89.77 114.31L90.45 114.24L91.12 114.2L91.79 114.17L92.45 114.15L93.1 114.16L93.75 114.18L94.39 114.22L95.02 114.27L95.65 114.35L96.26 114.44L96.87 114.56L97.47 114.69L98.06 114.84L98.64 115.01L99.21 115.2L99.59 116.2L100.31 118.2L100.65 119.2L100.99 120.21L101.63 122.23L101.94 123.25L102.24 124.28L102.53 125.31L102.8 126.35L103.07 127.4L103.33 128.45L103.58 129.52L103.83 130.6L104.06 131.69L104.28 132.79L104.49 133.9L104.7 135.03L104.89 136.17L105.07 137.32L105.25 138.49L105.42 139.68L105.57 140.89L105.72 142.11L105.86 143.35L105.98 144.62L106.1 145.9L106.21 147.2L106.31 148.52L106.4 149.87L106.48 151.24L106.55 152.64L106.61 154.05L106.66 155.5L106.71 156.97L106.74 158.47L106.76 159.99L106.78 161.54L106.78 163.13L107.54 159.93L107.72 159.13L107.91 158.33L108.09 157.52L108.28 156.72L108.64 155.1L108.81 154.29L108.98 153.47L109.16 152.65L109.32 151.83L109.49 151L109.65 150.18L109.81 149.34L109.96 148.51L110.11 147.66L110.25 146.82L110.39 145.97L110.53 145.11L110.65 144.25L110.78 143.38L110.9 142.51L111.01 141.63L111.12 140.74L111.22 139.85L111.31 138.95L111.39 138.04L111.55 136.2L111.61 135.27L111.67 134.33L111.71 133.38L111.76 132.43L111.79 131.46L111.81 130.49L111.82 129.51L111.83 128.51L112.21 128.11L112.58 127.69L112.96 127.27L113.34 126.84L113.72 126.39L114.46 125.49L114.84 125.02L115.21 124.54L115.57 124.06L115.94 123.57L116.66 122.57L117.02 122.06L117.37 121.54L118.07 120.48L118.41 119.95L118.75 119.41L119.41 118.31L120.05 117.19L120.37 116.62L120.67 116.06L120.97 115.48L121.27 114.91L121.56 114.33L121.84 113.74L122.12 113.16L122.39 112.57L122.65 111.98L123.15 110.8L123.61 109.6L123.83 109.01L124.05 108.41L124.25 107.81L124.44 107.21L124.06 107.57L123.69 107.94L123.31 108.31L122.55 109.07L122.17 109.46L121.79 109.84L121.42 110.23L121.04 110.62L120.66 111.02L119.14 112.58L118.77 112.97L118.39 113.36L117.25 114.5L116.87 114.87L116.5 115.24L115.74 115.96L115.36 116.31L114.98 116.65L114.22 117.31L113.85 117.62L113.47 117.93L113.09 118.23L112.33 118.79L111.95 119.05L111.58 119.3L111.2 119.54L110.82 119.77L110.44 119.98L110.06 120.18L109.68 120.36L109.31 120.52L101.74 96.56L102.3 96.15L102.85 95.74L103.4 95.32L104.46 94.44L104.98 93.99L105.49 93.53L106 93.06L106.49 92.59L106.98 92.11L107.46 91.62L107.94 91.12L108.86 90.1L109.32 89.58L109.77 89.06L110.21 88.53L110.65 87.99L111.51 86.91L111.94 86.35L112.36 85.8L112.77 85.24L113.59 84.1L113.99 83.53L114.79 82.37L115.57 81.21L116.35 80.03L116.73 79.44L117.12 78.84L117.5 78.25L119.02 75.85L119.4 75.26L118.83 75.85L117.73 76.97L117.2 77.5L116.67 78.01L116.14 78.51L115.63 78.99L115.12 79.45L114.61 79.9L114.11 80.33L113.62 80.75L113.13 81.15L112.64 81.54L111.68 82.28L111.2 82.63L110.73 82.96L110.25 83.29L109.78 83.61L109.31 83.91L108.83 84.2L108.36 84.49L107.88 84.77L107.41 85.03L106.45 85.55L105.97 85.79L105.48 86.03L104.5 86.49L104 86.71L103.49 86.93L102.47 87.35L101.41 87.77L100.88 87.97L99.78 88.37L99.21 88.57L98.82 87.57L98.4 86.55L97.96 85.53L97.48 84.51L96.99 83.47L96.47 82.43L95.92 81.39L95.36 80.35L94.77 79.3L94.17 78.25L93.54 77.2L92.9 76.16L92.24 75.11L91.57 74.07L90.88 73.03L90.17 72L89.45 70.97L88.72 69.95L87.98 68.94L87.23 67.93L86.47 66.94L85.7 65.96L84.92 64.99L84.14 64.03L83.35 63.09L82.55 62.16L81.75 61.25L80.95 60.35L80.15 59.47L79.35 58.61L78.54 57.77L77.74 56.96L76.94 56.16L76.14 55.39L75.35 54.64L74.56 53.92L73.77 53.22L72.99 52.55L72.22 51.9L71.46 51.29L72.6 53.09L72.97 53.69Z" id="b3YsD8NkCh"></path></defs><g><g><use xlink:href="#b3YsD8NkCh" opacity="1" fill="#61bb46" fill-opacity="1"></use><g><use xlink:href="#b3YsD8NkCh" opacity="1" fill-opacity="0" stroke="#000000" stroke-width="1" stroke-opacity="0"></use></g></g></g></svg>